inDegrees=yes
name=ik_lifting_orientations
DataType=double
version=3
OpenSimVersion=4.5-2024-01-10-34fd6af
endheader
time	pelvis_tilt	pelvis_list	pelvis_rotation	pelvis_tx	pelvis_ty	pelvis_tz	hip_flexion_r	hip_adduction_r	hip_rotation_r	knee_angle_r	knee_angle_r_beta	ankle_angle_r	subtalar_angle_r	mtp_angle_r	hip_flexion_l	hip_adduction_l	hip_rotation_l	knee_angle_l	knee_angle_l_beta	ankle_angle_l	subtalar_angle_l	mtp_angle_l	lumbar_extension	lumbar_bending	lumbar_rotation	arm_flex_r	arm_add_r	arm_rot_r	elbow_flex_r	pro_sup_r	wrist_flex_r	wrist_dev_r	arm_flex_l	arm_add_l	arm_rot_l	elbow_flex_l	pro_sup_l	wrist_flex_l	wrist_dev_l
1.61	-17.73225185497373	-21.33825621754485	-80.2269833459971	0	0.9399999998679526	0	45.18505468319231	-10.79710267265993	0	60.27672130666829	1.05202724910838	-5.32246779057894	0	0	45.18505468319231	-10.79710267265993	0	60.27672130666829	1.05202724910838	-5.32246779057894	0	0	-32.43693898584771	37.51618051790629	-5.594493129485381	14.71692828010984	-47.5414948680096	-10.05173225876997	35.07875101996607	1.815849452293656	0	0	0	-10.6139303412288	0	88.20989824394462	1.815849452293656	0	0
1.62	-17.60651979112983	-21.00398068995505	-80.69621604287197	0	0.9399999998679526	0	45.18491921340152	-10.79505940690198	0	60.27656269576034	1.052024480825807	-5.321389680242622	0	0	45.18491921340152	-10.79505940690198	0	60.27656269576034	1.052024480825807	-5.321389680242622	0	0	-32.30064224059977	37.3058699292196	-6.16948031725854	15.72553987096154	-47.5544753367551	-9.211040768581622	36.81360085274925	1.814924854584645	0	0	0	-10.61557477413099	0	88.21080963342779	1.814924854584645	0	0
1.63	-17.39363042379335	-20.571463398081	-81.29088330550343	0	0.9399999998679526	0	45.18483596320237	-10.79380782198825	0	60.27646507660406	1.052022777050117	-5.320729935643846	0	0	45.18483596320237	-10.79380782198825	0	60.27646507660406	1.052022777050117	-5.320729935643846	0	0	-32.14766250784479	36.81565490129697	-6.278430744631178	16.15861493692297	-47.70290013376827	-9.191435716987165	38.71536066817459	1.814356256167816	0	0	0	-10.61658661228862	0	88.21137010922502	1.814356256167816	0	0
1.64	-17.21944816262945	-20.11757317991832	-81.91887743169642	0	0.9399999998679526	0	45.184791085089	-10.79313581108246	0	60.27641231368839	1.052021856163516	-5.320376037129622	0	0	45.184791085089	-10.79313581108246	0	60.27641231368839	1.052021856163516	-5.320376037129622	0	0	-32.00989358192163	36.34560926189351	-6.289312994380786	16.79492966250554	-47.72604812259304	-9.111747437387983	40.42722725380695	1.814049406048277	0	0	0	-10.61713315053488	0	88.21167257590518	1.814049406048277	0	0
1.65	-17.00608355633617	-19.67255426257214	-82.47912654346744	0	0.9399999998679526	0	45.18474228444208	-10.79240385199955	0	60.27635503555745	1.052020856471541	-5.319990491124147	0	0	45.18474228444208	-10.79240385199955	0	60.27635503555745	1.052020856471541	-5.319990491124147	0	0	-31.79826737351892	35.85761687913714	-6.363434862048569	17.60658787788554	-47.41787630005863	-8.898780237588072	41.8345957875454	1.813715935668313	0	0	0	-10.61772679477757	0	88.21200128255805	1.813715935668313	0	0
1.66	-16.78218685798184	-19.22752218162175	-83.01601297352995	0	0.9399999998679526	0	45.18461117586806	-10.79043362948496	0	60.27620153378465	1.052018177360198	-5.318952660304988	0	0	45.18461117586806	-10.79043362948496	0	60.27620153378465	1.052018177360198	-5.318952660304988	0	0	-31.53245468620177	35.4490605093054	-6.83999191703063	18.68489619058581	-47.07880278439632	-8.079556007576905	43.27295904743618	1.812820780804766	0	0	0	-10.61931915247684	0	88.21288364982227	1.812820780804766	0	0
1.67	-16.50510356204608	-18.70311581009225	-83.67044507750485	0	0.9399999998679526	0	45.18448217051512	-10.78850060628271	0	60.27605033529281	1.052015538448692	-5.317935409076709	0	0	45.18448217051512	-10.78850060628271	0	60.27605033529281	1.052015538448692	-5.317935409076709	0	0	-31.26830006413974	34.92529508051197	-7.166241590967058	19.61664247701378	-46.8577896718046	-7.213479697693695	44.87155106288589	1.811939492261905	0	0	0	-10.62088750428563	0	88.21375234887971	1.811939492261905	0	0
1.68	-16.22845603069382	-18.19251399968368	-84.32367741531174	0	0.9399999998679526	0	45.1843818105523	-10.78699901025707	0	60.27593269657931	1.052013485265813	-5.317145691376258	0	0	45.1843818105523	-10.78699901025707	0	60.27593269657931	1.052013485265813	-5.317145691376258	0	0	-30.94118378429409	34.22683453458222	-7.121066629139085	20.00680576670617	-46.49775128170754	-6.970978697372985	46.48785438447237	1.81125377192359	0	0	0	-10.6221079477298	0	88.21442827349452	1.81125377192359	0	0
